<svg xmlns="http://www.w3.org/2000/svg" width="900" height="280" viewBox="0 0 900 280">
  <rect width="900" height="280" rx="8" fill="#0A0A0A"/>
  <text x="450" y="26" fill="#F0F0F0" font-size="14" text-anchor="middle" font-family="monospace" font-weight="bold">DAILY THREAT DETECTIONS — OCTOBER 2025</text>
<line x1="60" y1="230" x2="870" y2="230" stroke="#1C1C1C" stroke-width="1"/>
<text x="52" y="234" fill="#666" font-size="10" text-anchor="end" font-family="monospace">0</text>
<line x1="60" y1="182" x2="870" y2="182" stroke="#1C1C1C" stroke-width="1"/>
<text x="52" y="186" fill="#666" font-size="10" text-anchor="end" font-family="monospace">145</text>
<line x1="60" y1="135" x2="870" y2="135" stroke="#1C1C1C" stroke-width="1"/>
<text x="52" y="139" fill="#666" font-size="10" text-anchor="end" font-family="monospace">291</text>
<line x1="60" y1="88" x2="870" y2="88" stroke="#1C1C1C" stroke-width="1"/>
<text x="52" y="92" fill="#666" font-size="10" text-anchor="end" font-family="monospace">436</text>
<line x1="60" y1="40" x2="870" y2="40" stroke="#1C1C1C" stroke-width="1"/>
<text x="52" y="44" fill="#666" font-size="10" text-anchor="end" font-family="monospace">582</text>

  <defs>
    <linearGradient id="areaGrad" x1="0" y1="0" x2="0" y2="1">
      <stop offset="0%" stop-color="#FF0000" stop-opacity="0.4"/>
      <stop offset="100%" stop-color="#FF0000" stop-opacity="0.02"/>
    </linearGradient>
  </defs>
  <path d="M60,230 L60.0,195.4 L87.0,187.6 L114.0,187.9 L141.0,197.7 L168.0,183.0 L195.0,215.6 L222.0,164.4 L249.0,140.5 L276.0,113.5 L303.0,202.9 L330.0,146.1 L357.0,170.3 L384.0,121.0 L411.0,113.1 L438.0,101.7 L465.0,137.9 L492.0,118.4 L519.0,82.4 L546.0,40.0 L573.0,110.5 L600.0,117.4 L627.0,59.3 L654.0,124.6 L681.0,127.5 L708.0,140.9 L735.0,131.1 L762.0,108.9 L789.0,70.4 L816.0,137.3 L843.0,146.8 L870.0,150.0 L870.0,230 Z" fill="url(#areaGrad)"/>
  <polyline points="60.0,195.4 87.0,187.6 114.0,187.9 141.0,197.7 168.0,183.0 195.0,215.6 222.0,164.4 249.0,140.5 276.0,113.5 303.0,202.9 330.0,146.1 357.0,170.3 384.0,121.0 411.0,113.1 438.0,101.7 465.0,137.9 492.0,118.4 519.0,82.4 546.0,40.0 573.0,110.5 600.0,117.4 627.0,59.3 654.0,124.6 681.0,127.5 708.0,140.9 735.0,131.1 762.0,108.9 789.0,70.4 816.0,137.3 843.0,146.8 870.0,150.0" fill="none" stroke="#FF0000" stroke-width="2.5" stroke-linejoin="round" stroke-linecap="round"/>
  <circle cx="546.0" cy="40.0" r="5" fill="#FF0000" stroke="#0A0A0A" stroke-width="2"/>
  <text x="546.0" y="28.0" fill="#F0F0F0" font-size="11" text-anchor="middle" font-family="monospace" font-weight="bold">582</text>
<text x="60" y="270" fill="#666" font-size="10" text-anchor="middle" font-family="monospace">10-01</text>
<text x="141" y="270" fill="#666" font-size="10" text-anchor="middle" font-family="monospace">10-04</text>
<text x="222" y="270" fill="#666" font-size="10" text-anchor="middle" font-family="monospace">10-07</text>
<text x="303" y="270" fill="#666" font-size="10" text-anchor="middle" font-family="monospace">10-10</text>
<text x="384" y="270" fill="#666" font-size="10" text-anchor="middle" font-family="monospace">10-13</text>
<text x="465" y="270" fill="#666" font-size="10" text-anchor="middle" font-family="monospace">10-16</text>
<text x="546" y="270" fill="#666" font-size="10" text-anchor="middle" font-family="monospace">10-19</text>
<text x="627" y="270" fill="#666" font-size="10" text-anchor="middle" font-family="monospace">10-22</text>
<text x="708" y="270" fill="#666" font-size="10" text-anchor="middle" font-family="monospace">10-25</text>
<text x="789" y="270" fill="#666" font-size="10" text-anchor="middle" font-family="monospace">10-28</text>
<text x="870" y="270" fill="#666" font-size="10" text-anchor="middle" font-family="monospace">10-31</text>

  <text x="870" y="270" fill="#666" font-size="9" text-anchor="end" font-family="monospace">8,841 domains</text>
</svg>