<svg xmlns="http://www.w3.org/2000/svg" width="900" height="280" viewBox="0 0 900 280">
  <rect width="900" height="280" rx="8" fill="#0A0A0A"/>
  <text x="450" y="26" fill="#F0F0F0" font-size="14" text-anchor="middle" font-family="monospace" font-weight="bold">DAILY THREAT DETECTIONS — JANUARY 2026</text>
<line x1="60" y1="230" x2="870" y2="230" stroke="#1C1C1C" stroke-width="1"/>
<text x="52" y="234" fill="#666" font-size="10" text-anchor="end" font-family="monospace">0</text>
<line x1="60" y1="182" x2="870" y2="182" stroke="#1C1C1C" stroke-width="1"/>
<text x="52" y="186" fill="#666" font-size="10" text-anchor="end" font-family="monospace">307</text>
<line x1="60" y1="135" x2="870" y2="135" stroke="#1C1C1C" stroke-width="1"/>
<text x="52" y="139" fill="#666" font-size="10" text-anchor="end" font-family="monospace">615</text>
<line x1="60" y1="88" x2="870" y2="88" stroke="#1C1C1C" stroke-width="1"/>
<text x="52" y="92" fill="#666" font-size="10" text-anchor="end" font-family="monospace">922</text>
<line x1="60" y1="40" x2="870" y2="40" stroke="#1C1C1C" stroke-width="1"/>
<text x="52" y="44" fill="#666" font-size="10" text-anchor="end" font-family="monospace">1,230</text>

  <defs>
    <linearGradient id="areaGrad" x1="0" y1="0" x2="0" y2="1">
      <stop offset="0%" stop-color="#FF0000" stop-opacity="0.4"/>
      <stop offset="100%" stop-color="#FF0000" stop-opacity="0.02"/>
    </linearGradient>
  </defs>
  <path d="M60,230 L60.0,228.6 L100.5,135.5 L141.0,194.0 L181.5,183.7 L222.0,68.0 L262.5,171.9 L303.0,94.5 L343.5,208.2 L384.0,159.4 L424.5,173.2 L465.0,168.8 L505.5,182.3 L546.0,180.0 L586.5,40.0 L627.0,202.7 L667.5,151.7 L708.0,186.4 L748.5,181.0 L789.0,200.8 L829.5,157.7 L870.0,182.0 L870.0,230 Z" fill="url(#areaGrad)"/>
  <polyline points="60.0,228.6 100.5,135.5 141.0,194.0 181.5,183.7 222.0,68.0 262.5,171.9 303.0,94.5 343.5,208.2 384.0,159.4 424.5,173.2 465.0,168.8 505.5,182.3 546.0,180.0 586.5,40.0 627.0,202.7 667.5,151.7 708.0,186.4 748.5,181.0 789.0,200.8 829.5,157.7 870.0,182.0" fill="none" stroke="#FF0000" stroke-width="2.5" stroke-linejoin="round" stroke-linecap="round"/>
  <circle cx="586.5" cy="40.0" r="5" fill="#FF0000" stroke="#0A0A0A" stroke-width="2"/>
  <text x="586.5" y="28.0" fill="#F0F0F0" font-size="11" text-anchor="middle" font-family="monospace" font-weight="bold">1,230</text>
<text x="60" y="270" fill="#666" font-size="10" text-anchor="middle" font-family="monospace">01-01</text>
<text x="141" y="270" fill="#666" font-size="10" text-anchor="middle" font-family="monospace">01-03</text>
<text x="222" y="270" fill="#666" font-size="10" text-anchor="middle" font-family="monospace">01-05</text>
<text x="303" y="270" fill="#666" font-size="10" text-anchor="middle" font-family="monospace">01-07</text>
<text x="384" y="270" fill="#666" font-size="10" text-anchor="middle" font-family="monospace">01-19</text>
<text x="465" y="270" fill="#666" font-size="10" text-anchor="middle" font-family="monospace">01-21</text>
<text x="546" y="270" fill="#666" font-size="10" text-anchor="middle" font-family="monospace">01-23</text>
<text x="627" y="270" fill="#666" font-size="10" text-anchor="middle" font-family="monospace">01-25</text>
<text x="708" y="270" fill="#666" font-size="10" text-anchor="middle" font-family="monospace">01-27</text>
<text x="789" y="270" fill="#666" font-size="10" text-anchor="middle" font-family="monospace">01-29</text>
<text x="870" y="270" fill="#666" font-size="10" text-anchor="middle" font-family="monospace">01-31</text>

  <text x="870" y="270" fill="#666" font-size="9" text-anchor="end" font-family="monospace">8,932 domains</text>
</svg>